<svg width="24" height="24" viewBox="0 0 24 24" fill="none" xmlns="http://www.w3.org/2000/svg">
<path d="M10.025 15.45L15.45 12L10.025 8.55V15.45ZM12 21C10.7667 21 9.60417 20.7625 8.5125 20.2875C7.42083 19.8125 6.46667 19.1667 5.65 18.35C4.83333 17.5333 4.1875 16.5833 3.7125 15.5C3.2375 14.4167 3 13.25 3 12C3 10.75 3.2375 9.57917 3.7125 8.4875C4.1875 7.39583 4.83333 6.44583 5.65 5.6375C6.46667 4.82917 7.41667 4.1875 8.5 3.7125C9.58333 3.2375 10.75 3 12 3C13.25 3 14.4208 3.2375 15.5125 3.7125C16.6042 4.1875 17.5542 4.82917 18.3625 5.6375C19.1708 6.44583 19.8125 7.39583 20.2875 8.4875C20.7625 9.57917 21 10.75 21 12C21 13.2333 20.7625 14.3958 20.2875 15.4875C19.8125 16.5792 19.1708 17.5333 18.3625 18.35C17.5542 19.1667 16.6042 19.8125 15.5125 20.2875C14.4208 20.7625 13.25 21 12 21ZM12 20.225C14.2833 20.225 16.225 19.425 17.825 17.825C19.425 16.225 20.225 14.2833 20.225 12C20.225 9.71667 19.425 7.775 17.825 6.175C16.225 4.575 14.2833 3.775 12 3.775C9.71667 3.775 7.775 4.575 6.175 6.175C4.575 7.775 3.775 9.71667 3.775 12C3.775 14.2833 4.575 16.225 6.175 17.825C7.775 19.425 9.71667 20.225 12 20.225Z" fill="#F6F6F6"/>
</svg>
